HIERARCHY
ROOT Hips
{
	OFFSET 0.00000 0.00000 0.00000
	CHANNELS 6 Xposition Yposition Zposition Zrotation Yrotation Xrotation 
	JOINT LHipJoint
	{
		OFFSET 0 0 0
		CHANNELS 3 Zrotation Yrotation Xrotation
		JOINT LeftHip
		{
			OFFSET 1.34019 -1.87553 0.90315
			CHANNELS 3 Zrotation Yrotation Xrotation
			JOINT LeftKnee
			{
				OFFSET 2.55316 -7.01474 0.00000
				CHANNELS 3 Zrotation Yrotation Xrotation
				JOINT LeftAnkle
				{
					OFFSET 2.64657 -7.27139 0.00000
					CHANNELS 3 Zrotation Yrotation Xrotation
					JOINT LeftToe
					{
						OFFSET 0.24207 -0.66507 2.14489
						CHANNELS 3 Zrotation Yrotation Xrotation
						End Site
						{
							OFFSET 0.00000 -0.00000 1.12451
						}
					}
				}
			}
		}
	}
	JOINT RHipJoint
	{
		OFFSET 0 0 0
		CHANNELS 3 Zrotation Yrotation Xrotation
		JOINT RightHip
		{
			OFFSET -1.28320 -1.87553 0.90315
			CHANNELS 3 Zrotation Yrotation Xrotation
			JOINT RightKnee
			{
				OFFSET -2.60484 -7.15674 0.00000
				CHANNELS 3 Zrotation Yrotation Xrotation
				JOINT RightAnkle
				{
					OFFSET -2.60296 -7.15159 0.00000
					CHANNELS 3 Zrotation Yrotation Xrotation
					JOINT RightToe
					{
						OFFSET -0.31082 -0.85398 2.28998
						CHANNELS 3 Zrotation Yrotation Xrotation
						End Site
						{
							OFFSET -0.00000 -0.00000 1.21611
						}
					}
				}
			}
		}
	}
	JOINT lowerback
	{
		OFFSET 0 0 0
		CHANNELS 3 Zrotation Yrotation Xrotation
		JOINT Chest
		{
			OFFSET -0.00160 2.05581 -0.15156
			CHANNELS 3 Zrotation Yrotation Xrotation
			JOINT Chest2
			{
				OFFSET 0.04594 2.06326 -0.01617
				CHANNELS 3 Zrotation Yrotation Xrotation
				JOINT lowerneck
				{
					OFFSET 0 0 0
					CHANNELS 3 Zrotation Yrotation Xrotation
					JOINT Neck
					{
						OFFSET 0.03753 1.73883 0.26751
						CHANNELS 3 Zrotation Yrotation Xrotation
						JOINT Head
						{
							OFFSET -0.09795 1.76129 -0.31794
							CHANNELS 3 Zrotation Yrotation Xrotation
							End Site
							{
								OFFSET -0.03611 1.79987 -0.13846
							}
						}
					}
				}
				JOINT LeftCollar
				{
					OFFSET 0 0 0
					CHANNELS 3 Zrotation Yrotation Xrotation
					JOINT LeftShoulder
					{
						OFFSET 3.30667 1.29205 -0.22445
CHANNELS 3 Zrotation Xrotation Yrotation
						JOINT LeftElbow
						{
OFFSET 0 -4.927850 -0.000000
CHANNELS 3 Zrotation Xrotation Yrotation
							JOINT LeftWrist
							{
OFFSET 0 -3.440520 0.000000
CHANNELS 3 Zrotation Xrotation Yrotation
								JOINT lhand
								{
									OFFSET 0 0 0
CHANNELS 3 Zrotation Xrotation Yrotation
									JOINT LFingers
									{
OFFSET 0 -0.654330 0.000000
CHANNELS 3 Zrotation Xrotation Yrotation
										End Site
										{
OFFSET 0 -0.527530 0.000000
										}
									}
								}
								JOINT LThumb
								{
OFFSET 0 0.000000 0.000000
CHANNELS 3 Zrotation Xrotation Yrotation
									End Site
									{
OFFSET 0 -0.535590 0.535590
									}
								}
							}
						}
					}
				}
				JOINT RightCollar
				{
					OFFSET 0 0 0
					CHANNELS 3 Zrotation Yrotation Xrotation
					JOINT RightShoulder
					{
						OFFSET -3.20032 1.49783 -0.27688
CHANNELS 3 Zrotation Xrotation Yrotation
						JOINT RightElbow
						{
OFFSET 0 -5.091810 -0.000000
CHANNELS 3 Zrotation Xrotation Yrotation
							JOINT RightWrist
							{
OFFSET 0 -3.498650 -0.000000
CHANNELS 3 Zrotation Xrotation Yrotation
								JOINT rhand
								{
									OFFSET 0 0 0
CHANNELS 3 Zrotation Xrotation Yrotation
									JOINT RFingers
									{
OFFSET 0 -0.666410 0.000000
CHANNELS 3 Zrotation Xrotation Yrotation
										End Site
										{
OFFSET 0 -0.537280 0.000000
										}
									}
								}
								JOINT RThumb
								{
OFFSET 0 0.000000 0.000000
CHANNELS 3 Zrotation Xrotation Yrotation
									End Site
									{
OFFSET 0 -0.545480 0.545480
									}
								}
							}
						}
					}
				}
			}
		}
	}
}
MOTION
Frames: 13
Frame Time: 0.008333333333333333
0.630107 18.308193 5.695078 -1.308865 3.715548 1.890493 0.000000 0.000000 0.000000 0.000000 0.000000 0.000000 0.000000 0.000000 0.000000 0.000000 0.000000 0.000000 0.000000 0.000000 0.000000 0.000000 0.000000 0.000000 14.503923 0.648663 0.433905 -0.605716 -4.981691 13.856351 1.466198 -21.567471 -14.287114 -0.069722 1.703482 -4.686815 -0.817948 -0.391138 2.081691 1.768658 -0.514884 -0.503487 2.291362 -0.240142 -1.659714 4.208816 0.488980 -22.712617 -4.806552 0.343649 16.883559 -2.300426 -0.113118 9.041990 0.000000 0.000000 0.000000 65.110618 9.033909 27.744873 11.178258 -18.560947 1.832258 13.924541 10.715563 -4.193462 0.000000 0.000000 0.000000 -7.125000 0.000000 0.000000 -10.435857 34.155045 -2.816290 0.000000 0.000000 0.000000 -70.463846 10.260092 -32.132801 -11.339983 -18.807517 -1.884111 -12.015979 8.152587 10.681994 0.000000 0.000000 0.000000 7.125000 0.000000 0.000000 13.235451 40.538177 1.485763
0.630020 18.308280 5.694933 -1.303695 3.721844 1.893179 0.000000 0.000000 0.000000 0.000000 0.000000 0.000000 0.000000 0.000000 0.000000 0.000000 0.000000 0.000000 0.000000 0.000000 0.000000 0.000000 0.000000 0.000000 14.497569 0.641789 0.428216 -0.605947 -4.982673 13.859152 1.465793 -21.564814 -14.285641 -0.069867 1.705446 -4.692245 -0.821645 -0.392813 2.081373 1.767474 -0.517252 -0.502360 2.292286 -0.241326 -1.658241 4.219849 0.491839 -22.702451 -4.817556 0.346046 16.859876 -2.305278 -0.112454 9.032170 0.000000 0.000000 0.000000 65.111253 9.031628 27.766418 11.174475 -18.555142 1.831074 13.914924 10.740690 -4.175787 0.000000 0.000000 0.000000 -7.125000 0.000000 0.000000 -10.441171 34.136734 -2.822471 0.000000 0.000000 0.000000 -70.469738 10.255875 -32.157004 -11.334149 -18.798650 -1.882234 -12.004138 8.186060 10.639683 0.000000 0.000000 0.000000 7.125000 0.000000 0.000000 13.235653 40.495230 1.500088
0.629956 18.308389 5.694767 -1.297149 3.728473 1.896686 0.000000 0.000000 0.000000 0.000000 0.000000 0.000000 0.000000 0.000000 0.000000 0.000000 0.000000 0.000000 0.000000 0.000000 0.000000 0.000000 0.000000 0.000000 14.489594 0.634671 0.421149 -0.606244 -4.983921 13.862709 1.465323 -21.561735 -14.284256 -0.070033 1.707587 -4.698207 -0.826497 -0.394599 2.080678 1.765712 -0.519798 -0.501367 2.293299 -0.242577 -1.656701 4.231037 0.494854 -22.693195 -4.828138 0.348532 16.837547 -2.310019 -0.111701 9.023017 0.000000 0.000000 0.000000 65.112555 9.028769 27.789030 11.170714 -18.549404 1.829867 13.903841 10.765773 -4.157956 0.000000 0.000000 0.000000 -7.125000 0.000000 0.000000 -10.447640 34.118201 -2.829051 0.000000 0.000000 0.000000 -70.474941 10.251747 -32.185492 -11.327649 -18.788762 -1.880135 -11.993296 8.224596 10.596905 0.000000 0.000000 0.000000 7.125000 0.000000 0.000000 13.234967 40.451883 1.514435
0.629898 18.308504 5.694593 -1.290188 3.735203 1.900441 0.000000 0.000000 0.000000 0.000000 0.000000 0.000000 0.000000 0.000000 0.000000 0.000000 0.000000 0.000000 0.000000 0.000000 0.000000 0.000000 0.000000 0.000000 14.481132 0.627480 0.413669 -0.606562 -4.985250 13.866492 1.464832 -21.558530 -14.282899 -0.070207 1.709782 -4.704330 -0.831695 -0.396418 2.079870 1.763777 -0.522398 -0.500414 2.294339 -0.243848 -1.655141 4.242272 0.497915 -22.684213 -4.838593 0.351044 16.815626 -2.314727 -0.110921 9.014064 0.000000 0.000000 0.000000 65.114056 9.025736 27.811962 11.166959 -18.543685 1.828654 13.892317 10.790842 -4.140078 0.000000 0.000000 0.000000 -7.125000 0.000000 0.000000 -10.454456 34.099601 -2.835752 0.000000 0.000000 0.000000 -70.479938 10.247646 -32.215269 -11.320948 -18.778567 -1.877969 -11.982754 8.264655 10.553987 0.000000 0.000000 0.000000 7.125000 0.000000 0.000000 13.234014 40.408417 1.528789
0.629840 18.308620 5.694420 -1.283228 3.741932 1.904196 0.000000 0.000000 0.000000 0.000000 0.000000 0.000000 0.000000 0.000000 0.000000 0.000000 0.000000 0.000000 0.000000 0.000000 0.000000 0.000000 0.000000 0.000000 14.472670 0.620288 0.406189 -0.606880 -4.986578 13.870276 1.464341 -21.555324 -14.281542 -0.070380 1.711977 -4.710453 -0.836894 -0.398238 2.079061 1.761842 -0.524997 -0.499461 2.295379 -0.245119 -1.653582 4.253507 0.500976 -22.675230 -4.849048 0.353557 16.793705 -2.319435 -0.110141 9.005110 0.000000 0.000000 0.000000 65.115558 9.022704 27.834893 11.163204 -18.537967 1.827441 13.880793 10.815911 -4.122201 0.000000 0.000000 0.000000 -7.125000 0.000000 0.000000 -10.461272 34.081002 -2.842452 0.000000 0.000000 0.000000 -70.484934 10.243545 -32.245046 -11.314248 -18.768372 -1.875803 -11.972212 8.304714 10.511070 0.000000 0.000000 0.000000 7.125000 0.000000 0.000000 13.233061 40.364950 1.543143
0.629765 18.308744 5.694256 -1.276232 3.748803 1.908065 0.000000 0.000000 0.000000 0.000000 0.000000 0.000000 0.000000 0.000000 0.000000 0.000000 0.000000 0.000000 0.000000 0.000000 0.000000 0.000000 0.000000 0.000000 14.464252 0.613247 0.398576 -0.607215 -4.987960 13.874210 1.463885 -21.552348 -14.280166 -0.070562 1.714190 -4.716585 -0.842208 -0.400093 2.078146 1.759863 -0.527658 -0.498446 2.296427 -0.246425 -1.651889 4.265114 0.504321 -22.666779 -4.859556 0.356335 16.772359 -2.324195 -0.109220 8.996458 0.000000 0.000000 0.000000 65.117246 9.019078 27.858507 11.159467 -18.532275 1.826246 13.869411 10.841069 -4.105916 0.000000 0.000000 0.000000 -7.125000 0.000000 0.000000 -10.468203 34.064039 -2.848763 0.000000 0.000000 0.000000 -70.489541 10.240249 -32.272495 -11.308043 -18.758929 -1.873796 -11.962538 8.342454 10.469488 0.000000 0.000000 0.000000 7.125000 0.000000 0.000000 13.231701 40.322882 1.556975
0.629649 18.308889 5.694111 -1.269156 3.755995 1.912195 0.000000 0.000000 0.000000 0.000000 0.000000 0.000000 0.000000 0.000000 0.000000 0.000000 0.000000 0.000000 0.000000 0.000000 0.000000 0.000000 0.000000 0.000000 14.455934 0.606547 0.390662 -0.607590 -4.989462 13.878484 1.463510 -21.549893 -14.278751 -0.070764 1.716443 -4.722736 -0.847782 -0.402028 2.076991 1.757783 -0.530460 -0.497291 2.297496 -0.247811 -1.649897 4.277561 0.508307 -22.659530 -4.870184 0.359714 16.752316 -2.329076 -0.107978 8.988487 0.000000 0.000000 0.000000 65.119354 9.014111 27.883662 11.155771 -18.526643 1.825091 13.858350 10.866427 -4.093237 0.000000 0.000000 0.000000 -7.125000 0.000000 0.000000 -10.475395 34.050782 -2.854193 0.000000 0.000000 0.000000 -70.493267 10.238776 -32.294676 -11.302960 -18.751188 -1.872149 -11.954826 8.374946 10.430931 0.000000 0.000000 0.000000 7.125000 0.000000 0.000000 13.229419 40.283978 1.569626
0.629534 18.309033 5.693967 -1.262080 3.763186 1.916325 0.000000 0.000000 0.000000 0.000000 0.000000 0.000000 0.000000 0.000000 0.000000 0.000000 0.000000 0.000000 0.000000 0.000000 0.000000 0.000000 0.000000 0.000000 14.447616 0.599846 0.382749 -0.607966 -4.990964 13.882758 1.463134 -21.547438 -14.277336 -0.070966 1.718696 -4.728888 -0.853356 -0.403963 2.075836 1.755704 -0.533261 -0.496136 2.298565 -0.249197 -1.647904 4.290009 0.512292 -22.652281 -4.880813 0.363093 16.732272 -2.333957 -0.106736 8.980515 0.000000 0.000000 0.000000 65.121463 9.009143 27.908818 11.152074 -18.521011 1.823936 13.847288 10.891784 -4.080558 0.000000 0.000000 0.000000 -7.125000 0.000000 0.000000 -10.482586 34.037526 -2.859623 0.000000 0.000000 0.000000 -70.496993 10.237303 -32.316857 -11.297876 -18.743448 -1.870503 -11.947115 8.407437 10.392374 0.000000 0.000000 0.000000 7.125000 0.000000 0.000000 13.227138 40.245075 1.582276
0.629418 18.309177 5.693823 -1.255004 3.770378 1.920455 0.000000 0.000000 0.000000 0.000000 0.000000 0.000000 0.000000 0.000000 0.000000 0.000000 0.000000 0.000000 0.000000 0.000000 0.000000 0.000000 0.000000 0.000000 14.439298 0.593146 0.374835 -0.608341 -4.992466 13.887033 1.462759 -21.544983 -14.275921 -0.071168 1.720948 -4.735040 -0.858930 -0.405898 2.074680 1.753625 -0.536063 -0.494980 2.299633 -0.250584 -1.645911 4.302457 0.516278 -22.645031 -4.891441 0.366473 16.712228 -2.338838 -0.105494 8.972544 0.000000 0.000000 0.000000 65.123571 9.004175 27.933974 11.148377 -18.515379 1.822780 13.836226 10.917142 -4.067879 0.000000 0.000000 0.000000 -7.125000 0.000000 0.000000 -10.489778 34.024269 -2.865053 0.000000 0.000000 0.000000 -70.500719 10.235830 -32.339038 -11.292793 -18.735708 -1.868857 -11.939404 8.439929 10.353818 0.000000 0.000000 0.000000 7.125000 0.000000 0.000000 13.224856 40.206172 1.594926
0.629254 18.309297 5.693703 -1.248148 3.777277 1.924488 0.000000 0.000000 0.000000 0.000000 0.000000 0.000000 0.000000 0.000000 0.000000 0.000000 0.000000 0.000000 0.000000 0.000000 0.000000 0.000000 0.000000 0.000000 14.431590 0.587786 0.367628 -0.608717 -4.993943 13.891234 1.462505 -21.543503 -14.275919 -0.071346 1.722957 -4.740582 -0.864724 -0.407589 2.073428 1.751594 -0.538499 -0.493923 2.300848 -0.251775 -1.643967 4.313102 0.519825 -22.639805 -4.900290 0.369486 16.695329 -2.342939 -0.104349 8.965986 0.000000 0.000000 0.000000 65.126337 9.000402 27.947308 11.146118 -18.511916 1.822064 13.829479 10.929631 -4.064413 0.000000 0.000000 0.000000 -7.125000 0.000000 0.000000 -10.494751 34.020469 -2.867436 0.000000 0.000000 0.000000 -70.503689 10.235576 -32.362925 -11.288222 -18.728723 -1.867381 -11.929206 8.474712 10.319331 0.000000 0.000000 0.000000 7.125000 0.000000 0.000000 13.225646 40.171144 1.606674
0.629080 18.309413 5.693587 -1.241332 3.784122 1.928503 0.000000 0.000000 0.000000 0.000000 0.000000 0.000000 0.000000 0.000000 0.000000 0.000000 0.000000 0.000000 0.000000 0.000000 0.000000 0.000000 0.000000 0.000000 14.423994 0.582674 0.360552 -0.609092 -4.995416 13.895422 1.462274 -21.542204 -14.276179 -0.071520 1.724921 -4.746012 -0.870558 -0.409236 2.072157 1.749572 -0.540867 -0.492883 2.302090 -0.252930 -1.642032 4.323412 0.523291 -22.634953 -4.908810 0.372432 16.679011 -2.346896 -0.103223 8.959690 0.000000 0.000000 0.000000 65.129226 8.996850 27.958457 11.144125 -18.508855 1.821428 13.823529 10.939739 -4.062651 0.000000 0.000000 0.000000 -7.125000 0.000000 0.000000 -10.499314 34.018419 -2.869255 0.000000 0.000000 0.000000 -70.506519 10.235547 -32.387128 -11.283745 -18.721878 -1.865937 -11.918549 8.509918 10.285598 0.000000 0.000000 0.000000 7.125000 0.000000 0.000000 13.227003 40.136833 1.618255
0.628907 18.309529 5.693471 -1.234516 3.790966 1.932517 0.000000 0.000000 0.000000 0.000000 0.000000 0.000000 0.000000 0.000000 0.000000 0.000000 0.000000 0.000000 0.000000 0.000000 0.000000 0.000000 0.000000 0.000000 14.416398 0.577562 0.353476 -0.609468 -4.996889 13.899610 1.462043 -21.540904 -14.276439 -0.071693 1.726885 -4.751442 -0.876392 -0.410882 2.070886 1.747550 -0.543235 -0.491843 2.303332 -0.254085 -1.640097 4.333723 0.526756 -22.630101 -4.917330 0.375378 16.662693 -2.350853 -0.102097 8.953394 0.000000 0.000000 0.000000 65.132114 8.993297 27.969605 11.142133 -18.505793 1.820793 13.817580 10.949848 -4.060890 0.000000 0.000000 0.000000 -7.125000 0.000000 0.000000 -10.503878 34.016368 -2.871075 0.000000 0.000000 0.000000 -70.509349 10.235518 -32.411331 -11.279269 -18.715034 -1.864493 -11.907891 8.545125 10.251864 0.000000 0.000000 0.000000 7.125000 0.000000 0.000000 13.228360 40.102521 1.629837
0.628712 18.309644 5.693400 -1.228284 3.797327 1.936212 0.000000 0.000000 0.000000 0.000000 0.000000 0.000000 0.000000 0.000000 0.000000 0.000000 0.000000 0.000000 0.000000 0.000000 0.000000 0.000000 0.000000 0.000000 14.409640 0.573188 0.347161 -0.609810 -4.998241 13.903478 1.461867 -21.540078 -14.277206 -0.071822 1.728409 -4.755670 -0.881862 -0.412275 2.069814 1.745694 -0.545273 -0.490980 2.304541 -0.255075 -1.638470 4.343406 0.530145 -22.624797 -4.925476 0.378379 16.646948 -2.354567 -0.100948 8.947219 0.000000 0.000000 0.000000 65.135178 8.990549 27.975608 11.140724 -18.503625 1.820345 13.813647 10.954965 -4.062378 0.000000 0.000000 0.000000 -7.125000 0.000000 0.000000 -10.507284 34.017711 -2.871682 0.000000 0.000000 0.000000 -70.511838 10.236227 -32.433021 -11.275795 -18.709720 -1.863380 -11.897466 8.578216 10.223563 0.000000 0.000000 0.000000 7.125000 0.000000 0.000000 13.230765 40.073609 1.639766
